<svg
  width="26px"
  height="26px"
  viewBox="0 0 128 128"
  xmlns="http://www.w3.org/2000/svg">
    <polygon fill="#c3edf5" points="46.47 80.2 25.15 80.2 35.51 109 56.83 109 46.47 80.2"/>
    <polygon fill="#87dbec" points="40 82 50.38 91.07 47.12 82 40 82"/>
    <rect fill="#4d91bb" height="36" width="27.91" x="16" y="46"/>
    <polygon fill="#4d91bb" points="40 46 97 19 97 109 40 82 40 46"/>
    <rect fill="#c3edf5" height="90" width="12" x="88" y="19"/>
    <polygon fill="#c3edf5" points="100 52 100 76 112 72 112 56 100 52"/>
    <polygon fil="#2175aa" points="88 23.26 84.83 103.23 88 104.74 88 104.74 88 23.26 88 23.26"/><polygon fill="#87dbec" points="100 52 100 76 102.63 75.12 100 52"/>
</svg>